<svg xmlns="http://www.w3.org/2000/svg" viewBox="0 0 100 100">
  <defs>
    <linearGradient id="bg" x1="0%" y1="0%" x2="100%" y2="100%">
      <stop offset="0%" stop-color="#E76F51"/>
      <stop offset="100%" stop-color="#DD7B85"/>
    </linearGradient>
  </defs>
  <rect x="0" y="0" width="100" height="100" rx="22" fill="url(#bg)"/>
  <circle cx="50" cy="26" r="7" fill="#FFF7F3" opacity="0.95"/>
  <path d="M 22 78 L 22 40 Q 22 34 28 34 Q 34 34 36 40 L 50 60 L 64 40 Q 66 34 72 34 Q 78 34 78 40 L 78 78 L 68 78 L 68 54 L 54 74 Q 52 76 50 76 Q 48 76 46 74 L 32 54 L 32 78 Z" fill="#FFF7F3"/>
  <path d="M 65 78 Q 72 78 78 74 L 78 82 Q 73 84 70 84 Q 67 84 65 82 Z" fill="#F4A993" opacity="0.7"/>
</svg>
